<?xml version="1.0" encoding="UTF-8"?>
<svg xmlns="http://www.w3.org/2000/svg" xmlns:xlink="http://www.w3.org/1999/xlink" width="100px" height="60px" viewBox="0 0 100 60" version="1.1">
<g id="surface1">
<path style=" stroke:none;fill-rule:nonzero;fill:rgb(13.333333%,12.156863%,12.54902%);fill-opacity:1;" d="M 4.304688 42.0625 L 9.796875 42.0625 L 9.796875 24.632812 L 16.785156 42.0625 L 21.46875 42.0625 L 28.457031 24.632812 L 28.457031 42.0625 L 33.949219 42.0625 L 33.949219 16.050781 L 26.539062 16.050781 L 19.320312 35.148438 L 11.867188 16.050781 L 4.304688 16.050781 Z M 4.304688 42.0625 "/>
<path style=" stroke:none;fill-rule:nonzero;fill:rgb(13.333333%,12.156863%,12.54902%);fill-opacity:1;" d="M 46.105469 32.398438 L 46.105469 42.0625 L 51.867188 42.0625 L 51.867188 32.398438 L 61.734375 16.050781 L 55.324219 16.050781 L 48.988281 26.714844 L 42.957031 16.050781 L 36.238281 16.050781 Z M 46.105469 32.398438 "/>
<path style=" stroke:none;fill-rule:nonzero;fill:rgb(13.333333%,12.156863%,12.54902%);fill-opacity:1;" d="M 63.71875 42.0625 L 65.792969 36.375 L 76.007812 36.375 L 78.078125 42.0625 L 84.261719 42.0625 L 74.507812 16.050781 L 67.597656 16.050781 L 57.765625 42.0625 Z M 70.859375 21.996094 L 74.429688 31.878906 L 67.328125 31.878906 Z M 70.859375 21.996094 "/>
<path style=" stroke:none;fill-rule:nonzero;fill:rgb(13.333333%,12.156863%,12.54902%);fill-opacity:1;" d="M 88.480469 38.753906 L 92.398438 38.753906 L 92.398438 42.710938 L 88.480469 42.710938 Z M 88.480469 38.753906 "/>
</g>
</svg>
