<?xml version="1.0" encoding="utf-8"?>
<!-- Generator: Adobe Illustrator 19.2.1, SVG Export Plug-In . SVG Version: 6.00 Build 0)  -->
<svg version="1.1" id="layer" xmlns="http://www.w3.org/2000/svg" xmlns:xlink="http://www.w3.org/1999/xlink" x="0px" y="0px"
	 viewBox="0 0 652 652" style="enable-background:new 0 0 652 652;" xml:space="preserve">
<style type="text/css">
	.st0{fill:#231815;}
</style>
<g>
	<path class="st0" d="M621,337.3c-7.8-11.3-20.8-18.6-35.5-18.6c-24,0-43.4,19.4-43.4,43.4c0,24,19.4,43.4,43.4,43.4
		c12,0,23-4.9,30.8-12.8l-14.6-14.3c-4,3.8-9.4,6.1-15.3,6.1c-3.6,0-6.9-0.9-9.8-2.4L621,337.3z M594,341.4l-28.2,28.4
		c-0.9-2.4-1.5-4.9-1.5-7.6c0-12.2,9.9-22.2,22.2-22.2C589,340.1,591.6,340.5,594,341.4 M518.5,406.1L544,238.3h-25l-11.6,83.1
		l-26.5-58.4l-26.5,58.4l-11.6-83.1h-25l25.5,167.8l37.7-85L518.5,406.1z M373.1,382l44.5-44.7c-7.8-11.3-20.8-18.6-35.6-18.6
		c-24,0-43.4,19.4-43.4,43.4c0,24,19.4,43.4,43.4,43.4c12,0,23-4.9,30.8-12.8l-14.6-14.3c-4,3.8-9.4,6.1-15.3,6.1
		C379.4,384.4,376.1,383.4,373.1,382 M362.3,369.8c-0.9-2.4-1.5-4.9-1.5-7.6c0-12.2,9.9-22.2,22.2-22.2c2.7,0,5.2,0.5,7.6,1.3
		L362.3,369.8z M329.7,320.7c0-45.5-39.7-82.3-85.2-82.3h-10.8V403h10.8C290,403,329.7,366.2,329.7,320.7 M304.8,320.7
		c0,28.3-19.9,51.9-46.6,57.6V263C284.9,268.7,304.8,292.4,304.8,320.7 M186.1,403h24.6v-82.3h-24.7l0.1,11.6
		c-6.9-8.4-16.7-13.6-27.6-13.6c-21,0-38,19.4-38,43.3s17,43.4,38,43.4c10.8,0,20.7-5.2,27.6-13.5L186.1,403z M187,362.1
		c0,12.6-9.7,22.8-21.8,22.8c-12,0-21.8-10.2-21.8-22.8c0-12.6,9.8-22.8,21.8-22.8C177.3,339.3,187,349.5,187,362.1 M117.1,403
		l-47.7-92.3l47.7-72.3H87.6l-41.9,62.9v-62.9H21V403h24.7v-82.3L87.6,403H117.1z"/>
</g>
</svg>
