<?xml version="1.0" encoding="utf-8"?>
<!-- Generator: Adobe Illustrator 18.1.0, SVG Export Plug-In . SVG Version: 6.00 Build 0)  -->
<svg version="1.1" id="Layer_1" xmlns="http://www.w3.org/2000/svg" xmlns:xlink="http://www.w3.org/1999/xlink" x="0px" y="0px"
	 viewBox="0 0 170 22" enable-background="new 0 0 170 22" xml:space="preserve">
<g>
	<defs>
		<rect id="SVGID_1_" x="4" y="1" width="161.1" height="19"/>
	</defs>
	<clipPath id="SVGID_2_">
		<use xlink:href="#SVGID_1_"  overflow="visible"/>
	</clipPath>
	<path clip-path="url(#SVGID_2_)" d="M149.6,7.8c0.3-0.8,0.7-1.5,1.3-2.1c0.5-0.6,1.2-1.1,2-1.4c0.8-0.3,1.6-0.5,2.5-0.5
		c0.9,0,1.8,0.2,2.6,0.5c0.8,0.3,1.4,0.8,2,1.4c0.5,0.6,1,1.3,1.3,2.1s0.4,1.7,0.4,2.6c0,1-0.1,1.9-0.4,2.7
		c-0.3,0.8-0.7,1.5-1.3,2.1c-0.6,0.6-1.2,1.1-2,1.4c-0.8,0.3-1.6,0.5-2.5,0.5c-0.9,0-1.8-0.2-2.5-0.5c-0.8-0.3-1.4-0.8-2-1.4
		c-0.6-0.6-1-1.3-1.3-2.1c-0.3-0.8-0.4-1.7-0.4-2.7C149.2,9.5,149.3,8.6,149.6,7.8 M146.4,14.3c0.5,1.2,1.2,2.2,2,3
		c0.9,0.8,1.9,1.5,3.1,2c1.2,0.5,2.5,0.7,3.9,0.7c1.4,0,2.7-0.2,3.9-0.7c1.2-0.5,2.2-1.1,3.1-2c0.9-0.8,1.5-1.8,2-3
		c0.5-1.2,0.7-2.5,0.7-3.9c0-1.4-0.2-2.8-0.7-3.9c-0.5-1.2-1.2-2.2-2-3c-0.9-0.8-1.9-1.4-3.1-1.9c-1.2-0.4-2.5-0.7-3.9-0.7
		c-1.4,0-2.7,0.2-3.9,0.7c-1.2,0.4-2.2,1.1-3.1,1.9c-0.9,0.8-1.5,1.8-2,3c-0.5,1.2-0.7,2.5-0.7,3.9
		C145.6,11.9,145.9,13.1,146.4,14.3 M120.9,19.5h3.2v-14h0.1l8.6,14h4.1V1.4h-3.2V15h-0.1l-8.4-13.6h-4.3V19.5z M101.4,12.6l2.8-7.4
		l2.8,7.4H101.4z M95.1,19.5h3.6l1.6-4.1h7.8l1.7,4.1h3.7l-7.8-18.1h-2.8L95.1,19.5z M68.6,19.5h3.1V5h0.1l5.4,14.5h2.2L84.9,5H85
		v14.5h3.2V1.4h-5.1l-4.7,12.9h-0.1L73.7,1.4h-5V19.5z M49.9,19.5h10.9v-2.9h-7.7V1.4h-3.2V19.5z M30.4,12.6l2.8-7.4l2.8,7.4H30.4z
		 M24.1,19.5h3.6l1.6-4.1h7.8l1.7,4.1h3.7L34.7,1.4h-2.8L24.1,19.5z M11.2,19.5h2.8l7.3-18.1h-3.5l-5,13.9h-0.1l-5-13.9H4L11.2,19.5
		z"/>
</g>
</svg>
