<?xml version="1.0" encoding="UTF-8" standalone="no"?>
<!-- Created with Inkscape (http://www.inkscape.org/) -->
<svg
   xmlns:svg="http://www.w3.org/2000/svg"
   xmlns="http://www.w3.org/2000/svg"
   version="1.0"
   width="744.09448"
   height="265.74802"
   id="svg6264">
  <defs
     id="defs6266" />
  <g
     transform="translate(-3283.7134,64.531061)"
     style="display:inline"
     id="layer2">
    <g
       transform="translate(17.716556,17.727333)"
       id="g12154">
      <path
         d="M 3364.3388,-64.531061 C 3379.1394,-64.531061 3397.7408,-59.730711 3411.3411,-43.609833 C 3410.741,-42.049757 3408.9415,-40.489681 3406.741,-39.069544 C 3396.7406,-51.690277 3380.5397,-56.030521 3369.339,-56.030521 C 3337.1373,-56.030521 3312.1353,-27.848943 3312.1353,27.654295 C 3312.1353,87.897775 3344.337,116.85944 3376.9389,116.85944 C 3391.7404,116.85944 3405.9408,109.15899 3419.7421,91.858026 C 3421.3415,92.318037 3423.1419,94.178182 3425.1424,95.798272 C 3409.5407,117.01947 3386.9402,126.26 3367.9387,126.26 C 3331.937,126.26 3294.1349,97.998401 3285.5339,52.135681 C 3280.9338,22.334015 3286.3341,3.4928885 3287.7344,-2.0874517 C 3298.735,-41.969739 3333.7365,-64.531061 3364.3388,-64.531061"
         style="fill:#000000;fill-rule:nonzero;stroke:none;stroke-width:0.28299999;stroke-linecap:butt;stroke-linejoin:miter;stroke-miterlimit:3.86400008;stroke-dasharray:none"
         id="path11716" />
      <path
         d="M 3893.1689,-61.490833 L 3992.3748,-61.490833 C 3992.1747,-59.730711 3992.1747,-58.090617 3992.3748,-52.490366 L 3958.1726,-52.490366 L 3958.1726,122.49979 L 3930.5709,122.49979 L 3930.5709,-52.150288 L 3893.1689,-52.150288 L 3893.1689,-61.490833"
         style="fill:#000000;fill-rule:nonzero;stroke:none;stroke-width:0.28299999;stroke-linecap:butt;stroke-linejoin:miter;stroke-miterlimit:3.86400008;stroke-dasharray:none"
         id="path11718" />
      <path
         d="M 3764.1619,-61.050826 L 3791.5635,-61.050826 L 3791.5635,122.29975 L 3764.1619,122.29975 L 3764.1619,-61.050826 z "
         style="fill:#000000;fill-rule:nonzero;stroke:none;stroke-width:0.28299999;stroke-linecap:butt;stroke-linejoin:miter;stroke-miterlimit:3.86400008;stroke-dasharray:none"
         id="path11720" />
      <path
         d="M 3582.7513,-61.810907 L 3582.7513,122.17981 L 3556.3499,122.17981 L 3556.3499,7.5531619 C 3547.7489,11.37338 3538.9488,14.313491 3531.348,14.313491 C 3516.1473,14.313491 3495.3463,0.91276656 3480.3457,0.91276656 C 3479.1454,0.91276656 3476.3447,1.1927368 3474.5453,1.472801 C 3472.9449,1.7527713 3464.1448,4.3729963 3464.1448,8.1131964 L 3464.1448,122.63982 L 3436.5431,122.63982 L 3436.5431,-61.470829 L 3464.744,-61.470829 L 3464.744,-6.6276473 C 3474.9454,-13.028082 3486.7453,-15.608203 3497.5459,-15.608203 C 3519.9472,-15.608203 3526.3478,-2.6474861 3543.7489,-2.6474861 C 3545.5493,-2.6474861 3556.1499,-2.4874495 3556.3499,-7.5077551 L 3556.3499,-61.810907 L 3582.7513,-61.810907"
         style="fill:#000000;fill-rule:nonzero;stroke:none;stroke-width:0.28299999;stroke-linecap:butt;stroke-linejoin:miter;stroke-miterlimit:3.86400008;stroke-dasharray:none"
         id="path11722" />
      <path
         d="M 3853.3664,-63.370982 C 3861.7674,-63.370982 3870.3675,-62.050868 3878.7684,-54.670491 C 3877.7682,-52.950378 3874.7685,-49.990169 3873.7682,-49.990169 C 3872.568,-49.990169 3869.3682,-53.050401 3867.5678,-54.090451 C 3862.1675,-57.070571 3859.7669,-56.910628 3855.5669,-56.910628 C 3844.1661,-56.910628 3833.5656,-51.550245 3833.5656,-37.989484 C 3833.5656,-1.0073919 3907.7704,20.793943 3907.7704,75.07709 C 3907.7704,96.258283 3899.9696,120.81969 3867.7678,124.45987 C 3862.3675,125.0399 3859.5669,124.91997 3858.5676,124.91997 C 3841.7665,124.91997 3820.7645,117.5395 3808.1645,95.518208 L 3814.765,95.518208 C 3826.965,107.17891 3843.7661,118.45952 3856.7672,118.45952 C 3876.1679,118.45952 3889.369,106.05884 3889.369,87.317736 C 3889.369,52.235704 3814.565,19.713884 3814.565,-27.128872 C 3814.565,-51.430311 3831.7652,-63.370982 3853.3664,-63.370982"
         style="fill:#000000;fill-rule:nonzero;stroke:none;stroke-width:0.28299999;stroke-linecap:butt;stroke-linejoin:miter;stroke-miterlimit:3.86400008;stroke-dasharray:none"
         id="path11724" />
      <path
         d="M 3653.3553,-53.810387 C 3686.7573,-53.810387 3704.9587,-32.82924 3704.9587,-0.66731393 C 3704.9587,26.034206 3686.3572,42.555176 3654.1555,51.715679 C 3648.9552,53.155821 3638.5547,55.195913 3637.5545,55.195913 L 3632.7543,56.235964 L 3632.7543,36.414801 L 3632.7543,30.05447 L 3632.9544,16.753675 L 3632.9544,-51.430311 C 3639.754,-52.470362 3644.5551,-53.810387 3653.3553,-53.810387 z M 3700.1576,-55.950502 C 3724.5594,-43.349774 3731.9601,-22.368626 3731.9601,-4.0075162 C 3731.9601,40.395056 3660.756,55.755948 3638.5547,60.936196 C 3655.7558,83.537527 3700.1576,105.91881 3723.9593,105.91881 C 3734.9599,105.91881 3732.9594,104.25871 3746.7607,99.738518 L 3746.7607,122.25974 C 3744.7603,122.43978 3746.7607,122.43978 3745.7605,122.43978 C 3711.5583,122.43978 3664.1559,91.137955 3634.7538,68.776679 L 3634.7538,121.85974 L 3607.3522,121.85974 L 3607.3522,-55.670532 C 3620.9535,-58.210645 3635.1539,-62.490875 3648.9552,-63.050909 C 3648.9552,-63.050909 3662.3555,-64.351019 3678.3563,-61.93084 C 3678.3563,-61.93084 3685.1569,-61.130845 3691.7575,-59.190682 C 3695.7575,-57.990688 3700.1576,-55.950502 3700.1576,-55.950502"
         style="fill:#000000;fill-rule:evenodd;stroke:none;stroke-width:0.28299999;stroke-linecap:butt;stroke-linejoin:miter;stroke-miterlimit:3.86400008;stroke-dasharray:none"
         id="path11726" />
      <path
         d="M 3310.1358,143.30099 L 3307.9353,143.30099 L 3307.9353,159.42196 C 3307.9353,161.02205 3307.9353,163.66218 3305.5347,163.66218 C 3304.5354,163.66218 3303.9353,163.18217 3303.1351,162.50211 L 3301.9348,164.24222 C 3302.935,165.12224 3304.1353,165.76229 3305.5347,165.76229 C 3306.935,165.76229 3308.3353,165.20226 3309.1355,164.08219 C 3310.1358,162.74216 3310.1358,161.04205 3310.1358,159.42196 L 3310.1358,143.30099"
         style="fill:#000000;fill-rule:nonzero;stroke:none;stroke-width:0.28299999;stroke-linecap:butt;stroke-linejoin:miter;stroke-miterlimit:3.86400008;stroke-dasharray:none"
         id="path11728" />
      <path
         d="M 3323.7361,150.98144 L 3321.7356,150.98144 L 3321.7356,158.28189 C 3321.7356,161.6621 3322.9359,164.00217 3326.7367,164.00217 C 3330.3366,164.00217 3331.737,161.6621 3331.737,158.28189 L 3331.737,150.98144 L 3329.5365,150.98144 L 3329.5365,158.04183 C 3329.5365,160.18195 3329.3364,162.02209 3326.7367,162.02209 C 3323.9361,162.02209 3323.7361,160.18195 3323.7361,158.04183 L 3323.7361,150.98144"
         style="fill:#000000;fill-rule:nonzero;stroke:none;stroke-width:0.28299999;stroke-linecap:butt;stroke-linejoin:miter;stroke-miterlimit:3.86400008;stroke-dasharray:none"
         id="path11730" />
      <path
         d="M 3343.7369,150.98144 L 3341.1372,150.98144 L 3347.5378,164.5422 L 3351.3377,155.10163 L 3355.3377,164.5422 L 3361.5382,150.98144 L 3359.1385,150.98144 L 3355.3377,159.5619 L 3351.3377,150.0014 L 3347.3377,159.5619 L 3343.7369,150.98144"
         style="fill:#000000;fill-rule:evenodd;stroke:none;stroke-width:0.28299999;stroke-linecap:butt;stroke-linejoin:miter;stroke-miterlimit:3.86400008;stroke-dasharray:none"
         id="path11732" />
      <path
         d="M 3382.3392,157.78187 C 3382.5392,154.00166 3380.3396,150.62145 3376.3397,150.62145 C 3372.3387,150.62145 3370.1392,153.7216 3370.1392,157.4818 C 3370.1392,161.12207 3372.5388,164.00217 3376.3397,164.00217 C 3378.9393,164.00217 3380.9398,162.72216 3382.1391,160.44201 L 3380.3396,159.40196 C 3379.5395,160.90202 3378.3392,162.02209 3376.5388,162.02209 C 3373.9391,162.02209 3372.3387,160.12194 3372.3387,157.78187 L 3382.3392,157.78187 z M 3372.3387,155.94173 C 3372.7388,154.10159 3374.3392,152.62153 3376.3397,152.62153 C 3378.1391,152.62153 3379.7395,154.10159 3379.9396,155.94173 L 3372.3387,155.94173"
         style="fill:#000000;fill-rule:evenodd;stroke:none;stroke-width:0.28299999;stroke-linecap:butt;stroke-linejoin:miter;stroke-miterlimit:3.86400008;stroke-dasharray:none"
         id="path11734" />
      <path
         d="M 3392.7406,163.66218 L 3394.9402,163.66218 L 3394.9402,141.40084 L 3392.7406,141.40084 L 3392.7406,163.66218 z "
         style="fill:#000000;fill-rule:nonzero;stroke:none;stroke-width:0.28299999;stroke-linecap:butt;stroke-linejoin:miter;stroke-miterlimit:3.86400008;stroke-dasharray:none"
         id="path11736" />
      <path
         d="M 3406.741,163.66218 L 3408.9415,163.66218 L 3408.9415,150.98144 L 3406.741,150.98144 L 3406.741,163.66218 z M 3407.9413,144.66112 C 3407.1411,144.66112 3406.3409,145.36109 3406.3409,146.20119 C 3406.3409,147.0612 3407.1411,147.74126 3407.9413,147.74126 C 3408.7415,147.74126 3409.5407,147.0612 3409.5407,146.20119 C 3409.5407,145.36109 3408.7415,144.66112 3407.9413,144.66112"
         style="fill:#000000;fill-rule:evenodd;stroke:none;stroke-width:0.28299999;stroke-linecap:butt;stroke-linejoin:miter;stroke-miterlimit:3.86400008;stroke-dasharray:none"
         id="path11738" />
      <path
         d="M 3432.1421,157.78187 C 3432.3422,154.00166 3430.1426,150.62145 3426.1417,150.62145 C 3422.1417,150.62145 3419.9421,153.7216 3419.9421,157.4818 C 3419.9421,161.12207 3422.3418,164.00217 3426.1417,164.00217 C 3428.7423,164.00217 3430.7427,162.72216 3431.9421,160.44201 L 3430.1426,159.40196 C 3429.3424,160.90202 3428.1422,162.02209 3426.3417,162.02209 C 3423.7421,162.02209 3422.1417,160.12194 3422.1417,157.78187 L 3432.1421,157.78187 z M 3422.1417,155.94173 C 3422.5418,154.10159 3424.1422,152.62153 3426.1417,152.62153 C 3427.9421,152.62153 3429.5425,154.10159 3429.7425,155.94173 L 3422.1417,155.94173"
         style="fill:#000000;fill-rule:evenodd;stroke:none;stroke-width:0.28299999;stroke-linecap:butt;stroke-linejoin:miter;stroke-miterlimit:3.86400008;stroke-dasharray:none"
         id="path11740" />
      <path
         d="M 3444.5431,150.98144 L 3442.5426,150.98144 L 3442.5426,163.66218 L 3444.5431,163.66218 L 3444.5431,157.32176 C 3444.5431,155.66166 3444.7431,152.62153 3447.1437,152.62153 C 3447.7438,152.62153 3447.9429,152.88159 3448.343,153.18157 L 3449.3433,151.22149 C 3448.7431,150.86141 3448.143,150.62145 3447.5438,150.62145 C 3446.1435,150.62145 3445.5433,151.34143 3444.7431,152.34156 L 3444.5431,152.34156 L 3444.5431,150.98144"
         style="fill:#000000;fill-rule:nonzero;stroke:none;stroke-width:0.28299999;stroke-linecap:butt;stroke-linejoin:miter;stroke-miterlimit:3.86400008;stroke-dasharray:none"
         id="path11742" />
      <path
         d="M 3470.1443,157.78187 C 3470.3443,154.00166 3468.3448,150.62145 3464.1448,150.62145 C 3460.1439,150.62145 3457.9443,153.7216 3457.9443,157.4818 C 3457.9443,161.12207 3460.5439,164.00217 3464.1448,164.00217 C 3466.7444,164.00217 3468.9449,162.72216 3470.1443,160.44201 L 3468.3448,159.40196 C 3467.3446,160.90202 3466.1443,162.02209 3464.3439,162.02209 C 3461.9443,162.02209 3460.3439,160.12194 3460.3439,157.78187 L 3470.1443,157.78187 z M 3460.3439,155.94173 C 3460.5439,154.10159 3462.3444,152.62153 3464.1448,152.62153 C 3466.1443,152.62153 3467.5446,154.10159 3467.9447,155.94173 L 3460.3439,155.94173"
         style="fill:#000000;fill-rule:evenodd;stroke:none;stroke-width:0.28299999;stroke-linecap:butt;stroke-linejoin:miter;stroke-miterlimit:3.86400008;stroke-dasharray:none"
         id="path11744" />
      <path
         d="M 3498.5461,150.98144 L 3496.3465,150.98144 L 3496.3465,158.28189 C 3496.3465,161.6621 3497.7459,164.00217 3501.3467,164.00217 C 3505.1467,164.00217 3506.3469,161.6621 3506.3469,158.28189 L 3506.3469,150.98144 L 3504.3465,150.98144 L 3504.3465,158.04183 C 3504.3465,160.18195 3503.9464,162.02209 3501.3467,162.02209 C 3498.7461,162.02209 3498.5461,160.18195 3498.5461,158.04183 L 3498.5461,150.98144"
         style="fill:#000000;fill-rule:nonzero;stroke:none;stroke-width:0.28299999;stroke-linecap:butt;stroke-linejoin:miter;stroke-miterlimit:3.86400008;stroke-dasharray:none"
         id="path11746" />
      <path
         d="M 3520.1473,150.98144 L 3517.9477,150.98144 L 3517.9477,163.66218 L 3520.1473,163.66218 L 3520.1473,157.64184 C 3520.1473,155.38169 3520.3473,152.62153 3523.148,152.62153 C 3525.7476,152.62153 3525.9477,154.46167 3525.9477,156.50176 L 3525.9477,163.66218 L 3528.1482,163.66218 L 3528.1482,156.12177 C 3528.1482,153.16156 3527.348,150.62145 3523.7481,150.62145 C 3522.1477,150.62145 3520.9475,151.30142 3520.1473,152.52151 L 3520.1473,152.52151 L 3520.1473,150.98144"
         style="fill:#000000;fill-rule:nonzero;stroke:none;stroke-width:0.28299999;stroke-linecap:butt;stroke-linejoin:miter;stroke-miterlimit:3.86400008;stroke-dasharray:none"
         id="path11748" />
      <path
         d="M 3544.9492,152.62153 C 3547.5489,152.62153 3549.1492,154.66162 3549.1492,157.20183 C 3549.1492,159.78195 3547.7489,162.02209 3544.9492,162.02209 C 3542.3486,162.02209 3540.7492,159.66192 3540.7492,157.18183 C 3540.7492,154.80166 3542.3486,152.62153 3544.9492,152.62153 z M 3549.1492,163.66218 L 3551.3497,163.66218 L 3551.3497,141.40084 L 3549.1492,141.40084 L 3549.1492,152.78157 L 3549.1492,152.78157 C 3547.949,151.44145 3546.3495,150.62145 3544.7492,150.62145 C 3540.9483,150.62145 3538.5487,153.7216 3538.5487,157.34177 C 3538.5487,160.84201 3540.9483,164.00217 3544.7492,164.00217 C 3546.3495,164.00217 3547.949,163.28219 3549.1492,161.90206 L 3549.1492,161.90206 L 3549.1492,163.66218"
         style="fill:#000000;fill-rule:evenodd;stroke:none;stroke-width:0.28299999;stroke-linecap:butt;stroke-linejoin:miter;stroke-miterlimit:3.86400008;stroke-dasharray:none"
         id="path11750" />
      <path
         d="M 3580.9509,143.30099 L 3578.5513,143.30099 L 3578.5513,156.04175 C 3578.5513,158.36191 3578.7513,160.22196 3580.5508,161.92207 C 3581.9511,163.28219 3583.9516,164.00217 3585.9511,164.00217 C 3587.9516,164.00217 3589.952,163.20217 3591.3514,161.68201 C 3592.9518,160.02201 3593.1518,158.26189 3593.1518,156.04175 L 3593.1518,143.30099 L 3590.9513,143.30099 L 3590.9513,155.4217 C 3590.9513,157.02179 3590.9513,158.80192 3589.952,160.10193 C 3588.9518,161.222 3587.3514,161.90206 3585.9511,161.90206 C 3584.3517,161.90206 3582.5513,161.202 3581.7511,159.96199 C 3580.7508,158.66188 3580.9509,156.94177 3580.9509,155.4217 L 3580.9509,143.30099"
         style="fill:#000000;fill-rule:nonzero;stroke:none;stroke-width:0.28299999;stroke-linecap:butt;stroke-linejoin:miter;stroke-miterlimit:3.86400008;stroke-dasharray:none"
         id="path11752" />
      <path
         d="M 3604.7526,141.40084 L 3604.7526,163.66218 L 3606.9522,163.66218 L 3606.9522,157.64184 C 3606.9522,155.38169 3606.9522,152.62153 3609.9528,152.62153 C 3612.5525,152.62153 3612.7525,154.46167 3612.7525,156.50176 L 3612.7525,163.66218 L 3614.753,163.66218 L 3614.753,156.12177 C 3614.753,153.16156 3613.9528,150.62145 3610.553,150.62145 C 3608.9526,150.62145 3607.7523,151.30142 3606.9522,152.52151 L 3606.9522,152.46149 L 3606.9522,141.40084 L 3604.7526,141.40084"
         style="fill:#000000;fill-rule:nonzero;stroke:none;stroke-width:0.28299999;stroke-linecap:butt;stroke-linejoin:miter;stroke-miterlimit:3.86400008;stroke-dasharray:none"
         id="path11754" />
      <path
         d="M 3628.5543,150.98144 L 3626.3538,150.98144 L 3626.3538,163.66218 L 3628.5543,163.66218 L 3628.5543,157.32176 C 3628.5543,155.66166 3628.5543,152.62153 3630.9539,152.62153 C 3631.554,152.62153 3631.9541,152.88159 3632.3542,153.18157 L 3633.3544,151.22149 C 3632.7543,150.86141 3632.1542,150.62145 3631.354,150.62145 C 3629.9537,150.62145 3629.3535,151.34143 3628.5543,152.34156 L 3628.5543,152.34156 L 3628.5543,150.98144"
         style="fill:#000000;fill-rule:nonzero;stroke:none;stroke-width:0.28299999;stroke-linecap:butt;stroke-linejoin:miter;stroke-miterlimit:3.86400008;stroke-dasharray:none"
         id="path11756" />
      <path
         d="M 3645.3544,150.98144 L 3643.3549,150.98144 L 3643.3549,163.66218 L 3645.3544,163.66218 L 3645.3544,157.10181 C 3645.3544,155.18165 3645.7545,152.62153 3648.3551,152.62153 C 3650.3555,152.62153 3650.5546,154.88167 3650.5546,156.46175 L 3650.5546,163.66218 L 3652.7551,163.66218 L 3652.7551,156.94177 C 3652.7551,155.02171 3652.9552,152.62153 3655.3557,152.62153 C 3657.5553,152.62153 3657.7553,154.64162 3657.7553,156.28171 L 3657.7553,163.66218 L 3659.9559,163.66218 L 3659.9559,155.94173 C 3659.9559,153.26158 3659.1557,150.62145 3655.9559,150.62145 C 3654.3555,150.62145 3652.7551,151.32142 3651.955,152.72155 C 3651.3548,151.40144 3649.9554,150.62145 3648.5551,150.62145 C 3647.3548,150.62145 3646.1546,151.30142 3645.5544,152.34156 L 3645.3544,152.34156 L 3645.3544,150.98144"
         style="fill:#000000;fill-rule:nonzero;stroke:none;stroke-width:0.28299999;stroke-linecap:butt;stroke-linejoin:miter;stroke-miterlimit:3.86400008;stroke-dasharray:none"
         id="path11758" />
      <path
         d="M 3676.7569,152.62153 C 3679.5566,152.62153 3681.157,154.66162 3681.157,157.20183 C 3681.157,159.78195 3679.5566,162.02209 3676.7569,162.02209 C 3674.1563,162.02209 3672.756,159.66192 3672.756,157.18183 C 3672.756,154.80166 3674.3563,152.62153 3676.7569,152.62153 z M 3683.1574,150.98144 L 3680.9569,150.98144 L 3680.9569,152.78157 L 3680.9569,152.78157 C 3679.9567,151.44145 3678.3563,150.62145 3676.5568,150.62145 C 3672.756,150.62145 3670.5564,153.7216 3670.5564,157.34177 C 3670.5564,160.84201 3672.756,164.00217 3676.5568,164.00217 C 3678.3563,164.00217 3679.7566,163.3022 3680.9569,161.90206 L 3680.9569,161.90206 L 3680.9569,163.66218 L 3683.1574,163.66218 L 3683.1574,150.98144"
         style="fill:#000000;fill-rule:evenodd;stroke:none;stroke-width:0.28299999;stroke-linecap:butt;stroke-linejoin:miter;stroke-miterlimit:3.86400008;stroke-dasharray:none"
         id="path11760" />
      <path
         d="M 3704.1585,151.88146 C 3702.9582,151.08146 3701.5579,150.62145 3700.1576,150.62145 C 3696.5577,150.62145 3693.3579,153.54155 3693.3579,157.32176 C 3693.3579,161.14198 3696.3576,164.00217 3700.1576,164.00217 C 3701.7579,164.00217 3702.9582,163.54216 3704.1585,162.72216 L 3704.1585,159.82196 L 3704.1585,159.82196 C 3702.9582,161.202 3701.7579,162.02209 3699.9575,162.02209 C 3697.3579,162.02209 3695.5574,159.82196 3695.5574,157.32176 C 3695.5574,154.78165 3697.5579,152.62153 3700.1576,152.62153 C 3701.7579,152.62153 3702.9582,153.48154 3703.9584,154.76165 L 3704.1585,154.76165 L 3704.1585,151.88146"
         style="fill:#000000;fill-rule:nonzero;stroke:none;stroke-width:0.28299999;stroke-linecap:butt;stroke-linejoin:miter;stroke-miterlimit:3.86400008;stroke-dasharray:none"
         id="path11762" />
      <path
         d="M 3714.9591,141.40084 L 3714.9591,163.66218 L 3717.1586,163.66218 L 3717.1586,157.64184 C 3717.1586,155.38169 3717.3587,152.62153 3720.3594,152.62153 C 3722.959,152.62153 3722.959,154.46167 3722.959,156.50176 L 3722.959,163.66218 L 3725.1595,163.66218 L 3725.1595,156.12177 C 3725.1595,153.16156 3724.3593,150.62145 3720.9595,150.62145 C 3719.3591,150.62145 3718.1589,151.30142 3717.3587,152.52151 L 3717.1586,152.46149 L 3717.1586,141.40084 L 3714.9591,141.40084"
         style="fill:#000000;fill-rule:nonzero;stroke:none;stroke-width:0.28299999;stroke-linecap:butt;stroke-linejoin:miter;stroke-miterlimit:3.86400008;stroke-dasharray:none"
         id="path11764" />
      <path
         d="M 3747.961,157.78187 C 3748.161,154.00166 3745.9605,150.62145 3741.7605,150.62145 C 3737.9606,150.62145 3735.7601,153.7216 3735.7601,157.4818 C 3735.7601,161.12207 3738.1606,164.00217 3741.9606,164.00217 C 3744.5602,164.00217 3746.5607,162.72216 3747.761,160.44201 L 3745.9605,159.40196 C 3745.1604,160.90202 3743.9601,162.02209 3742.1606,162.02209 C 3739.56,162.02209 3737.9606,160.12194 3737.9606,157.78187 L 3747.961,157.78187 z M 3737.9606,155.94173 C 3738.3597,154.10159 3739.9601,152.62153 3741.9606,152.62153 C 3743.76,152.62153 3745.3604,154.10159 3745.5604,155.94173 L 3737.9606,155.94173"
         style="fill:#000000;fill-rule:evenodd;stroke:none;stroke-width:0.28299999;stroke-linecap:butt;stroke-linejoin:miter;stroke-miterlimit:3.86400008;stroke-dasharray:none"
         id="path11766" />
      <path
         d="M 3760.361,150.98144 L 3758.3615,150.98144 L 3758.3615,163.66218 L 3760.361,163.66218 L 3760.361,157.32176 C 3760.361,155.66166 3760.5611,152.62153 3762.9616,152.62153 C 3763.5618,152.62153 3763.7618,152.88159 3764.1619,153.18157 L 3765.1621,151.22149 C 3764.562,150.86141 3763.9618,150.62145 3763.3617,150.62145 C 3761.9614,150.62145 3761.1612,151.34143 3760.5611,152.34156 L 3760.361,152.34156 L 3760.361,150.98144"
         style="fill:#000000;fill-rule:nonzero;stroke:none;stroke-width:0.28299999;stroke-linecap:butt;stroke-linejoin:miter;stroke-miterlimit:3.86400008;stroke-dasharray:none"
         id="path11768" />
      <path
         d="M 3797.764,152.96152 C 3797.1638,151.64149 3795.7635,150.62145 3794.3632,150.62145 C 3792.3637,150.62145 3790.5633,152.0815 3790.5633,154.22162 C 3790.5633,158.20187 3796.3636,157.24184 3796.3636,160.06192 C 3796.3636,161.222 3795.3634,162.02209 3794.3632,162.02209 C 3792.7638,162.02209 3792.1636,161.18199 3791.7635,159.982 L 3789.7631,160.802 C 3790.3632,162.80208 3792.1636,164.00217 3794.1631,164.00217 C 3796.5637,164.00217 3798.5632,162.28206 3798.5632,159.88197 C 3798.5632,157.74186 3797.1638,156.86175 3795.5635,156.2417 C 3794.1631,155.62175 3792.5637,155.18165 3792.5637,154.02157 C 3792.5637,153.22158 3793.563,152.62153 3794.1631,152.62153 C 3794.9633,152.62153 3795.5635,153.24158 3795.9636,153.92164 L 3797.764,152.96152"
         style="fill:#000000;fill-rule:nonzero;stroke:none;stroke-width:0.28299999;stroke-linecap:butt;stroke-linejoin:miter;stroke-miterlimit:3.86400008;stroke-dasharray:none"
         id="path11770" />
      <path
         d="M 3820.1653,157.78187 C 3820.3654,154.00166 3818.1649,150.62145 3814.1649,150.62145 C 3810.164,150.62145 3807.9644,153.7216 3807.9644,157.4818 C 3807.9644,161.12207 3810.364,164.00217 3814.1649,164.00217 C 3816.7646,164.00217 3818.765,162.72216 3819.9653,160.44201 L 3818.1649,159.40196 C 3817.3647,160.90202 3816.1644,162.02209 3814.365,162.02209 C 3811.9644,162.02209 3810.164,160.12194 3810.164,157.78187 L 3820.1653,157.78187 z M 3810.364,155.94173 C 3810.5641,154.10159 3812.3645,152.62153 3814.1649,152.62153 C 3816.1644,152.62153 3817.5647,154.10159 3817.9648,155.94173 L 3810.364,155.94173"
         style="fill:#000000;fill-rule:evenodd;stroke:none;stroke-width:0.28299999;stroke-linecap:butt;stroke-linejoin:miter;stroke-miterlimit:3.86400008;stroke-dasharray:none"
         id="path11772" />
      <path
         d="M 3831.166,163.66218 L 3833.1655,163.66218 L 3833.1655,150.98144 L 3831.166,150.98144 L 3831.166,163.66218 z M 3832.1653,144.66112 C 3831.3651,144.66112 3830.5658,145.36109 3830.5658,146.20119 C 3830.5658,147.0612 3831.3651,147.74126 3832.1653,147.74126 C 3832.9655,147.74126 3833.7656,147.0612 3833.7656,146.20119 C 3833.7656,145.36109 3832.9655,144.66112 3832.1653,144.66112"
         style="fill:#000000;fill-rule:evenodd;stroke:none;stroke-width:0.28299999;stroke-linecap:butt;stroke-linejoin:miter;stroke-miterlimit:3.86400008;stroke-dasharray:none"
         id="path11774" />
      <path
         d="M 3847.5669,152.96152 L 3849.7665,152.96152 L 3849.7665,150.98144 L 3847.5669,150.98144 L 3847.5669,146.42114 L 3845.3664,146.42114 L 3845.3664,150.98144 L 3843.9661,150.98144 L 3843.9661,152.96152 L 3845.3664,152.96152 L 3845.3664,163.66218 L 3847.5669,163.66218 L 3847.5669,152.96152"
         style="fill:#000000;fill-rule:nonzero;stroke:none;stroke-width:0.28299999;stroke-linecap:butt;stroke-linejoin:miter;stroke-miterlimit:3.86400008;stroke-dasharray:none"
         id="path11776" />
      <path
         d="M 3880.768,145.4211 L 3880.768,163.66218 L 3882.9685,163.66218 L 3882.9685,143.30099 L 3878.5684,143.30099 L 3877.3681,145.4211 L 3880.768,145.4211"
         style="fill:#000000;fill-rule:nonzero;stroke:none;stroke-width:0.28299999;stroke-linecap:butt;stroke-linejoin:miter;stroke-miterlimit:3.86400008;stroke-dasharray:none"
         id="path11778" />
      <path
         d="M 3903.9695,154.08158 C 3906.17,154.08158 3907.9704,155.8217 3907.9704,157.98182 C 3907.9704,160.14194 3906.17,161.90206 3903.9695,161.90206 C 3901.77,161.90206 3899.9696,160.14194 3899.9696,157.98182 C 3899.9696,155.8217 3901.77,154.08158 3903.9695,154.08158 z M 3903.9695,142.96101 C 3900.7697,142.96101 3898.3692,145.36109 3898.3692,148.62127 C 3898.3692,150.4014 3899.1694,152.18152 3900.7697,153.08154 C 3898.7693,153.94165 3897.769,155.88172 3897.769,157.96182 C 3897.769,161.48206 3900.3696,164.00217 3903.9695,164.00217 C 3907.5704,164.00217 3910.17,161.48206 3910.17,157.96182 C 3910.17,155.88172 3909.1698,153.94165 3907.1703,153.08154 C 3908.7697,152.18152 3909.5699,150.4014 3909.5699,148.62127 C 3909.5699,145.36109 3907.1703,142.96101 3903.9695,142.96101 z M 3903.9695,145.06111 C 3905.97,145.06111 3907.5704,146.62119 3907.5704,148.56126 C 3907.5704,150.54143 3905.97,152.14152 3903.9695,152.14152 C 3901.97,152.14152 3900.3696,150.54143 3900.3696,148.56126 C 3900.3696,146.62119 3901.97,145.06111 3903.9695,145.06111"
         style="fill:#000000;fill-rule:evenodd;stroke:none;stroke-width:0.28299999;stroke-linecap:butt;stroke-linejoin:miter;stroke-miterlimit:3.86400008;stroke-dasharray:none"
         id="path11780" />
      <path
         d="M 3929.5716,142.96101 L 3922.9711,152.16152 C 3921.7708,153.58156 3920.9706,155.18165 3920.9706,157.04179 C 3920.9706,160.88202 3924.1713,164.00217 3927.9713,164.00217 C 3931.7712,164.00217 3934.9719,160.90202 3934.9719,157.02179 C 3934.9719,153.3416 3932.1713,150.30138 3928.3714,150.30138 C 3927.7712,150.30138 3927.1711,150.4014 3926.771,150.60144 L 3926.571,150.54143 L 3931.3711,144.22101 L 3929.5716,142.96101 z M 3927.9713,161.90206 C 3925.3707,161.90206 3923.1711,159.74194 3923.1711,157.10181 C 3923.1711,154.46167 3925.3707,152.40148 3927.9713,152.40148 C 3930.5709,152.40148 3932.7714,154.46167 3932.7714,157.10181 C 3932.7714,159.74194 3930.5709,161.90206 3927.9713,161.90206"
         style="fill:#000000;fill-rule:evenodd;stroke:none;stroke-width:0.28299999;stroke-linecap:butt;stroke-linejoin:miter;stroke-miterlimit:3.86400008;stroke-dasharray:none"
         id="path11782" />
      <path
         d="M 3951.3729,154.02157 C 3953.7725,153.94165 3955.5729,155.24166 3955.5729,157.82188 C 3955.5729,160.06192 3953.9725,161.90206 3951.5729,161.90206 C 3949.5725,161.90206 3947.7721,160.44201 3947.7721,158.36191 L 3945.5725,158.36191 C 3945.5725,161.76203 3948.3722,164.00217 3951.5729,164.00217 C 3954.9728,164.00217 3957.9725,161.52207 3957.9725,157.96182 C 3957.9725,155.88172 3956.9732,153.86163 3954.9728,152.96152 C 3956.5731,152.14152 3957.5724,150.32138 3957.5724,148.52134 C 3957.5724,145.16114 3954.9728,142.96101 3951.773,142.96101 C 3948.5722,142.96101 3946.5718,145.08112 3946.1726,148.3213 L 3948.3722,148.3213 C 3948.5722,146.42114 3949.7725,145.06111 3951.773,145.06111 C 3953.9725,145.06111 3955.3729,146.46115 3955.3729,148.62127 C 3955.3729,151.18148 3953.3724,151.84145 3951.3729,151.92146 L 3951.3729,154.02157"
         style="fill:#000000;fill-rule:nonzero;stroke:none;stroke-width:0.28299999;stroke-linecap:butt;stroke-linejoin:miter;stroke-miterlimit:3.86400008;stroke-dasharray:none"
         id="path11784" />
    </g>
  </g>
  <g
     transform="translate(-3291.6262,-412.75285)"
     style="display:inline"
     id="layer1" />
</svg>
